<svg xmlns="http://www.w3.org/2000/svg" viewBox="0 0 1400 760" role="img" aria-labelledby="title desc"><title id="title">AROFi operations handbook cover</title><desc id="desc">A premium illustrated cover showing WiFi, a MikroTik router, a dashboard, mobile money and voucher operations.</desc><defs><linearGradient id="bg" x1="0" y1="0" x2="1" y2="1"><stop stop-color="#0b1736"/><stop offset=".58" stop-color="#173b83"/><stop offset="1" stop-color="#2463eb"/></linearGradient><linearGradient id="card" x1="0" y1="0" x2="1" y2="1"><stop stop-color="#fff" stop-opacity=".98"/><stop offset="1" stop-color="#eaf2ff" stop-opacity=".94"/></linearGradient><filter id="shadow"><feDropShadow dx="0" dy="18" stdDeviation="22" flood-color="#020617" flood-opacity=".28"/></filter></defs><rect width="1400" height="760" rx="40" fill="url(#bg)"/><circle cx="1190" cy="130" r="240" fill="#60a5fa" opacity=".12"/><circle cx="1230" cy="710" r="330" fill="#22c55e" opacity=".1"/><g fill="none" stroke="#93c5fd" stroke-width="3" opacity=".28"><path d="M920 158c87-87 228-87 315 0"/><path d="M965 205c62-62 163-62 225 0"/><path d="M1010 252c37-37 98-37 135 0"/></g><g transform="translate(78 96)"><rect width="720" height="568" rx="34" fill="url(#card)" filter="url(#shadow)"/><text x="62" y="92" font-family="Segoe UI,Arial" font-size="27" font-weight="700" fill="#2463eb" letter-spacing="3">AROFi HANDBOOK</text><text x="62" y="184" font-family="Segoe UI,Arial" font-size="65" font-weight="760" fill="#101828">WiFi billing,</text><text x="62" y="254" font-family="Segoe UI,Arial" font-size="65" font-weight="760" fill="#101828">payments &amp;</text><text x="62" y="324" font-family="Segoe UI,Arial" font-size="65" font-weight="760" fill="#101828">network operations</text><text x="62" y="390" font-family="Segoe UI,Arial" font-size="24" fill="#526179">A practical guide for business owners, agents,</text><text x="62" y="424" font-family="Segoe UI,Arial" font-size="24" fill="#526179">network operators and platform administrators.</text><rect x="62" y="476" width="246" height="54" rx="27" fill="#2463eb"/><text x="185" y="511" text-anchor="middle" font-family="Segoe UI,Arial" font-size="20" font-weight="700" fill="#fff">Production edition</text></g><g transform="translate(905 320)" filter="url(#shadow)"><rect width="370" height="222" rx="28" fill="#fff"/><rect x="24" y="26" width="322" height="28" rx="8" fill="#edf2f7"/><circle cx="44" cy="40" r="6" fill="#22c55e"/><rect x="24" y="75" width="94" height="122" rx="16" fill="#eff6ff"/><rect x="137" y="75" width="94" height="57" rx="16" fill="#ecfdf3"/><rect x="250" y="75" width="96" height="57" rx="16" fill="#fff7ed"/><path d="M150 178l40-26 31 14 46-54 62 32" fill="none" stroke="#2463eb" stroke-width="8" stroke-linecap="round" stroke-linejoin="round"/><circle cx="267" cy="112" r="18" fill="#f59e0b"/><path d="M261 112l5 5 10-13" fill="none" stroke="#fff" stroke-width="5" stroke-linecap="round"/></g><g transform="translate(855 575)" filter="url(#shadow)"><rect x="0" y="0" width="478" height="105" rx="24" fill="#f8fafc"/><rect x="28" y="34" width="260" height="38" rx="19" fill="#111827"/><circle cx="54" cy="53" r="12" fill="#22c55e"/><g fill="#cbd5e1"><rect x="319" y="30" width="30" height="46" rx="6"/><rect x="360" y="24" width="30" height="52" rx="6"/><rect x="401" y="18" width="30" height="58" rx="6"/></g><path d="M432 18c20 15 28 37 20 61" fill="none" stroke="#2463eb" stroke-width="5" stroke-linecap="round"/></g></svg>